<svg xmlns="http://www.w3.org/2000/svg" width="187.072" height="320.394" viewBox="0 0 187.072 320.394"><defs><style>.a,.d,.o,.p,.q,.s{fill:none;}.a,.b,.c,.d,.p,.t{stroke:#3f4d79;}.a,.o,.q,.s{stroke-linecap:round;}.a,.b,.c,.d,.o,.p,.q,.s,.t{stroke-miterlimit:10;}.a,.t{stroke-width:6px;}.b,.r,.t{fill:#fff;}.b,.c,.d{stroke-width:5px;}.c{fill:#d1d1ff;}.e{fill:#6562cf;}.f{fill:#b65a18;}.g{fill:#8382d8;}.h{fill:#333b63;}.i{fill:#8cafdd;}.j{fill:#c36f0b;}.k{fill:#e5e6ff;}.l{fill:#3f4d79;}.m{fill:#ff6f5e;}.n{fill:#f56555;}.o{stroke:#a55f2b;}.o,.p{stroke-width:4px;}.q{stroke:#ff6f5e;}.q,.s{stroke-width:3px;}.s{stroke:#fff;}</style></defs><g transform="translate(3.058 1.51)"><g transform="translate(0 0)"><g transform="translate(0)"><g transform="translate(82.566 106.304)"><path class="a" d="M531.54,870.67V914.1a38.54,38.54,0,0,0,18.306,32.8l16.019,9.88" transform="translate(-481.202 -758.66)"/><path class="a" d="M394.825,870.67V914.1a38.542,38.542,0,0,1-18.3,32.8l-16.021,9.88" transform="translate(-353.172 -758.66)"/><path class="b" d="M8.054,0h9.669A8.047,8.047,0,0,1,25.77,8.047H0A8.047,8.047,0,0,1,8.054,0Z" transform="translate(58.483 112.007) rotate(180)"/><path class="b" d="M573.68,732.961h7.8l3.038-16.931h-7.8Z" transform="translate(-512.745 -642.907)"/><path class="c" d="M334.77,795.7v6.561c0,.867,2.376,1.68,6.508,2.371,7.936,1.33,22.345,2.22,38.806,2.22,25.023,0,45.311-2.057,45.311-4.592V795.7c0,1.282-5.21,2.447-13.607,3.269-8.173.83-19.363,1.333-31.7,1.333s-23.534-.5-31.707-1.313c-2.726-.271-5.115-.576-7.1-.908C337.146,797.38,334.77,796.567,334.77,795.7Z" transform="translate(-333.912 -702.542)"/><path class="b" d="M334.77,782.077c0,.867,2.376,1.68,6.508,2.371,1.984.332,4.373.636,7.1.908,8.173.82,19.363,1.323,31.715,1.323s23.532-.5,31.7-1.313c8.4-.832,13.607-2,13.607-3.269,0-2.537-20.288-4.6-45.311-4.6-19.9,0-36.8,1.3-42.89,3.111C335.622,781.055,334.77,781.556,334.77,782.077Z" transform="translate(-333.912 -688.919)"/><path class="c" d="M557.863,498.919H566.8c7.9,0,16.315-10.116,18.8-22.6l5.668-28.481c2.485-12.483-1.9-22.6-9.807-22.6h-8.927c-7.9,0-16.312,10.116-18.8,22.6l-5.671,28.481C545.577,488.8,549.965,498.919,557.863,498.919Z" transform="translate(-493.049 -425.24)"/><path class="b" d="M536.863,498.919H545.8c7.9,0,16.315-10.116,18.8-22.6l5.668-28.481c2.484-12.483-1.9-22.6-9.807-22.6h-8.927c-7.9,0-16.312,10.116-18.8,22.6l-5.67,28.481C524.577,488.8,528.965,498.919,536.863,498.919Z" transform="translate(-477.329 -425.24)"/><ellipse class="c" cx="7.174" cy="7.174" rx="7.174" ry="7.174" transform="translate(78.205 195.732)"/><ellipse class="c" cx="7.174" cy="7.174" rx="7.174" ry="7.174" transform="translate(0 195.732)"/><path class="d" d="M472.33,1117.791s9.287-6.817,21.105,0" transform="translate(-436.881 -941.371)"/></g><g transform="translate(28.163)"><g transform="translate(0 145.462)"><path class="e" d="M381.138,614.1c-12.825,18.173-64.194,7.059-64.194,7.059-.34-7.061.176-25.589-12.354-36.156l28.971.754c22.883,2.14,39.832-2.434,45.105-4.793C383.193,587.543,390.191,601.263,381.138,614.1Z" transform="translate(-256.919 -580.96)"/><path class="f" d="M155.069,601.47s-35.456,2.16-38.492,9.729c-9.485,23.6,27.3,97.938,29.618,116.212,1.941,15.374-10.765,23.6-10.765,23.6a17.515,17.515,0,0,0,13.743,1.76c1.717-.465,3.309-2.623,6.515-5.225,2.384-1.934,8.256-5.414,8.155-8.351-.166-4.838-7.217-8.572-7.018-11.592s6.063-43.368,4.023-60.716C158.585,647.521,144,636.939,144,636.939l31.156-.377S170.28,611.131,155.069,601.47Z" transform="translate(-115.018 -596.312)"/><path class="g" d="M292.856,630.641s2.671-24.477-13.579-36.661c-1.285-.963-4.871.214-6.933.621a1,1,0,0,0-.5,1.642c10.77,15.483,10.989,28.76,10.247,36.606Z" transform="translate(-232.227 -590.429)"/><path class="h" d="M207.9,1115.661a5.783,5.783,0,0,1-.5,7.637l-11.228,11.087s-20.084.375-21.264,0-.116-3.729,3.153-4.71,7.738-6.417,7.738-6.417,3.568-3.825,9.39,8.019l3.9-3.422s-.92-10.094.6-15.324h-9.008a1.564,1.564,0,0,1-1.577-1.562,1.509,1.509,0,0,1,1.509-1.469h11.17a1.273,1.273,0,0,1,.948.422Z" transform="translate(-159.496 -976.591)"/><g transform="translate(8.904 0.048)"><path class="i" d="M422.172,622.033c-5.449,15.762-50.265,13.682-57.9,13.126a.141.141,0,0,0,0-.032c-.339-7.061-2.406-29.341-14.937-39.908l16.632-4.023,1.866-5.228c22.358,1.954,38.907-2.474,44.23-4.818C415.729,586.034,428.242,604.466,422.172,622.033Z" transform="translate(-299.313 -581.15)"/><path class="j" d="M190.788,646.47s-36.8,7.091-38.388,17.854,21.719,94.055,19.2,109.344-19.064,25.86-19.064,25.86,13.695,2.613,21.035,0c1.675-.6,4.715-4.627,7.521-6.231,2.666-1.524,8.256-4.157,8.155-7.094-.166-4.838-7.217-8.824-7.018-11.844s11.344-46.385,9.3-63.733c-2.263-19.363-9.3-27.43-9.3-27.43l20.595-.377S206.685,660.969,190.788,646.47Z" transform="translate(-151.845 -630.044)"/><path class="k" d="M314.564,674.658l10.147,1.006a2.089,2.089,0,0,0,2.09-2.2c-.342-7.109-2.434-29.65-15.2-40.129a4.289,4.289,0,0,0-3.772-.835l-8.55,2.2s17.281,11.8,13.219,37.521a2.1,2.1,0,0,0,2.065,2.432Z" transform="translate(-261.849 -619.492)"/><path class="l" d="M187.135,1165.759a5.891,5.891,0,0,1-.518,7.8l-11.454,11.316s-23.054.382-24.259,0-.118-3.8,3.219-4.805,7.894-6.538,7.894-6.538,6.206-3.9,12.143,8.18l3.976-3.493s-.94-10.31.611-15.634h-9.194a1.594,1.594,0,0,1-1.609-1.592,1.547,1.547,0,0,1,1.544-1.509h11.394a1.3,1.3,0,0,1,.968.43Z" transform="translate(-150.428 -1014.051)"/></g></g><path class="m" d="M390.384,207.52c3.473,1.828,11.708,5.99,16.871,14.862s-6.153,41.14-6,50.766,9.276,26.3,10.866,27.053-18.659,9.053-48.533,5.852c0,0,2.364-13.464.639-19.315s-9.717-22.825-9.717-22.825-9.08-6.905-7.144-12.382c1.29-3.649,14.894-26.182,14.894-26.182Z" transform="translate(-288.734 -155.965)"/><g transform="translate(44.563 61.183)"><path class="n" d="M545.386,284.331A35.759,35.759,0,0,1,519.3,295.21s-13.491-43.438,1.946-48.922S545.386,284.331,545.386,284.331Z" transform="translate(-458.116 -245.809)"/><path class="j" d="M380.584,432.559c-.787,7.267-59.894,17.074-59.894,17.074l-.018-.035c-1.074.551-5.012,2.376-7.665,1.026-3.1-1.582-5.832-2.263-7.725-1.848-2.339.5-5,2.308-6.334,1.909A13.118,13.118,0,0,1,294.5,448.4a59.041,59.041,0,0,1,4.119-4.3c-1.33.417-3.231,1.509-4.215,1.838a1.7,1.7,0,0,1-2.175-.986s3.787-2.671,4.818-3.269a22.1,22.1,0,0,1,6.961-2.012c1.944.05,12.359,1.365,17.514,2.3,8.467-4.423,29.99-15.52,38.343-18.357l-2.842-9.163s11.99-1.169,20.416-8.8C377.441,405.673,381.4,425.043,380.584,432.559Z" transform="translate(-292.23 -365.456)"/><path class="o" d="M308,561.152s5.688-4.916,6.938-5.029c2.2-.211,5.08-.5,5.08-.5" transform="translate(-304.034 -477.714)"/><path class="o" d="M315.36,568.04s5.029-4.023,6.287-4.147c2.2-.211,5.08-.5,5.08-.5" transform="translate(-309.544 -483.53)"/><path class="f" d="M571.644,413.047c-3.709,2.178-10.418,5.072-20.922,4.212l-.832-2.688s11.992-1.167,20.416-8.8C570.306,405.762,570.94,408.845,571.644,413.047Z" transform="translate(-485.098 -365.546)"/></g><g transform="translate(46.312)"><g transform="translate(0 2.088)"><path class="l" d="M373.338,34.8s-1.941,27.042-58.78,34.4c0,0-7.416-6.023-3.018-12.1s9.267-8.313,5.112-12.432S306.7,32,315.079,24.136s27.548-18.3,41.469-10.68S353.4,35.039,373.338,34.8Z" transform="translate(-307.391 -10.804)"/><path class="p" d="M303.6,84.221s-7.416-6.023-3.018-12.1,8.781-8.313,4.624-12.432-8.447-14.014,1.021-20.537c10.994-7.574,22.549-11.017,36.133-5.784" transform="translate(-299.187 -25.817)"/></g><g transform="translate(26.724 27.965)"><path class="j" d="M419.426,113.71s2.311,16.27,14.605,23.587a38.083,38.083,0,0,1-28.571,18.734s5.859-10.665,5.844-14.062-2.691-13.225-2.691-13.225Z" transform="translate(-405.46 -113.71)"/><path class="f" d="M429.447,119.775c.206,7.592-5.11,13.529-9.6,16.66-.785-3.752-1.851-7.69-1.851-7.69l10.813-15.035a30.463,30.463,0,0,0,.671,3.121C429.432,117.726,429.417,118.712,429.447,119.775Z" transform="translate(-414.847 -113.71)"/></g><path class="j" d="M387.089,66.736c-4.184-4.778-10.5-8.158-16.247-6.312C362,63.266,360.829,77.9,372.178,91.191c1.345,1.574,14.406-3.355,15.729-13.815A29.605,29.605,0,0,0,387.089,66.736Z" transform="translate(-347.657 -45.475)"/><g transform="translate(15.936)"><path class="q" d="M386.56,24.8l-4.38-17.826A5.806,5.806,0,0,0,375.525,2.6l-8.638,1.843c-2.766.523-4.34,3.636-4.328,6.568" transform="translate(-362.56 -2.501)"/><rect class="r" width="12.113" height="12.113" rx="6.057" transform="translate(18.047 22.455) rotate(-13.53)"/><path class="s" d="M397.541,129.86c2.012,6.035,9.161,19.675,0,35.323s-20.826,27.349-11.892,43.9c7.755,14.364,7.242,36.432-13.579,36.432" transform="translate(-369.679 -97.834)"/></g></g></g><g transform="translate(0 79.822)"><path class="t" d="M36.319,386.229H32.452a4.441,4.441,0,0,1-4.071-2.66L3.39,326.141a4.438,4.438,0,0,1,4.071-6.211h0Z" transform="translate(-3.021 -319.93)"/><path class="t" d="M205.662,589.937H129.194a6.355,6.355,0,0,1-6.355-6.357h76.465A6.357,6.357,0,0,1,205.662,589.937Z" transform="translate(-92.71 -517.281)"/></g></g></g></g></svg>