<svg xmlns="http://www.w3.org/2000/svg" width="330.015" height="389.724" viewBox="0 0 330.015 389.724"><defs><style>.a,.i,.m,.o{fill:none;}.a,.b,.c{stroke:#3f4d79;stroke-linecap:round;}.a,.b,.c,.m,.o,.p{stroke-miterlimit:10;}.a,.b,.c,.i,.o{stroke-width:5px;}.b{fill:#fff;}.c,.n{fill:#eaeeff;}.d{fill:#f1921b;}.e{fill:#eb7200;}.f{fill:#d8e9ff;}.g{fill:#8cafdd;}.h{fill:#dbdaff;}.i{stroke:#8cafdd;stroke-linejoin:round;}.j{fill:#3f4d79;}.k{fill:#ffb000;}.l{fill:#3c4564;}.m{stroke:#ffb000;stroke-width:4px;}.o,.p{stroke:#3c4564;}.p{fill:#d1d1ff;stroke-width:6px;}</style></defs><g transform="translate(2.54 2.523)"><g transform="translate(0 0)"><g transform="translate(0 155.522)"><path class="a" d="M71.914,733.668H28.706a7.917,7.917,0,0,1-7.72-6.182l-9.416-41.969a7.908,7.908,0,0,1,7.717-9.638" transform="translate(-8.651 -623.797)"/><path class="a" d="M330.914,733.668H287.706a7.917,7.917,0,0,1-7.72-6.182l-9.416-41.969a7.908,7.908,0,0,1,7.717-9.638" transform="translate(-187.954 -623.797)"/><path class="b" d="M98.185,573.51H24.857a11.819,11.819,0,0,1-11.512-9.139L2.779,518.99A10.084,10.084,0,0,1,12.6,506.62H85.932a11.816,11.816,0,0,1,11.508,9.139l10.567,45.391a10.087,10.087,0,0,1-9.822,12.361Z" transform="translate(-2.516 -506.62)"/><rect class="c" width="128.072" height="10.468" rx="5.234" transform="translate(22.338 99.403)"/><path class="a" d="M46.69,982.678l14.6-108.813A10.47,10.47,0,0,1,71.525,863.68H96.758A10.475,10.475,0,0,1,107,873.865l14.6,108.813" transform="translate(-33.097 -753.809)"/><path class="a" d="M348.05,863.68h24.5c5.3,0,9.665,4.477,9.939,10.185l14.447,108.813" transform="translate(-241.726 -753.809)"/></g><g transform="translate(16.15)"><g transform="translate(117.75 123.63)"><path class="d" d="M526.808,437.527c1.591,1.049,5.28,8.865,5.348,9.807s-4.169,7.939-4.169,7.939-1.683.037-2-3.813c-.391-4.557-2.391-6.283-5.29-6.933-1.212-.271-3.44.652-3.6,2.437s4.452,2.969,5.379,4.053a4.5,4.5,0,0,1,.615,4s-7.114-2.154-8.481-2.554c-1.231-.366-6.726-5.363-10.154-10.318a35.556,35.556,0,0,1-4,2.539C491.84,449.318,462.3,460.1,447,457.654c-15.367-2.462-3.092-51.388-3.092-51.388,22.254,1.028,31.571-1.806,33.27-2.406l-3.456,22.617c9.351-.277,32.362,3.536,32.374,3.539C512.558,430.865,524.522,436.022,526.808,437.527Z" transform="translate(-439.262 -403.838)"/><path class="e" d="M448.863,406.2H449c22.254,1.028,31.571-1.806,33.27-2.406l-.815,5.539s-16.509,7.773-34.87,7.077Z" transform="translate(-444.328 -403.79)"/></g><g transform="translate(0 47.485)"><path class="f" d="M180.008,307.969c5.286-.388,14.869-61.905,14.869-61.905,11.8.172,26.069-5.333,26.069-5.333s-9.758-31.977-13.121-38.572-27.506-17.995-30.356-18.82l-47.061-10.77s-40.172,9.979-52.84,20.22S55,246.227,55,246.227c23.266,9.382,47.387,8,47.387,8l-8.2,49.428c-2.656,12-11.139,50.1,3.819,68.6C98.006,372.256,110.04,313.108,180.008,307.969Z" transform="translate(-55 -167.723)"/><path class="g" d="M288.922,177.492l-14.075,8.588L257,165.328l13.4-8.025a3.431,3.431,0,0,1,4.726,1.231Z" transform="translate(-194.842 -156.819)"/><path class="h" d="M430.3,214.6l9.905,5.846-.477-11.884-2.443-.988A27.906,27.906,0,0,0,430.3,214.6Z" transform="translate(-314.816 -191.953)"/><path class="i" d="M209,389.9c1.908-6.25,3.816-21.346,3.816-21.346" transform="translate(-161.613 -303.398)"/><path class="i" d="M315,233.765l13.81-8.065s13.25,15.764,13.619,18.521,1.065,30.873,1.065,30.873h6.985" transform="translate(-234.995 -204.505)"/><path class="i" d="M421.832,237.411,412.45,232.1s-8.508,13.459-8.308,16.552" transform="translate(-296.705 -208.935)"/><path class="i" d="M107.645,398.778s-29.737.883-47.215-8.428" transform="translate(-59.819 -314.25)"/></g><g transform="translate(1.095 127.877)"><path class="d" d="M195.318,466.328c0,1.412-14.505.9-16.549.9s-14.841.486-17.847,0c-16.343,1.345-89.236,6.644-97.714-5.139-9.813-13.644-1.046-44.507-1.046-44.507a120.531,120.531,0,0,0,42.689,6.256l-1.806,11.721c17.475,2.154,49.009,13.232,59.73,17.112,2.3-.735,11.05-3.385,15.481-2.375,5.126,1.154,11.284,5.769,11.924,7.053S195.318,464.918,195.318,466.328Z" transform="translate(-58.558 -417.58)"/><path class="e" d="M448.055,540.844c2.043,0,16.549.514,16.549-.9s-4.49-7.693-5.13-8.976-6.794-5.9-11.924-7.053c0,0,6.33,8.791.5,16.924" transform="translate(-327.853 -491.198)"/><path class="e" d="M68.084,417.61s22.534,7.927,42.7,6.25l-1.806,11.718s-26.912-4.308-41.849-14.056Z" transform="translate(-64.492 -417.601)"/></g><g transform="translate(42.619 185.928)"><g transform="translate(6.005 6.116)"><g transform="translate(101.13 171.146)"><path class="j" d="M591.558,1249.085H541.731c-.049-.76-.068-1.486-.052-2.185h49.945A10.477,10.477,0,0,1,591.558,1249.085Z" transform="translate(-541.673 -1226.776)"/><path class="k" d="M546.944,1181.5c.179,5.434-5.074,8.877-5.074,20.109h49.825a11.167,11.167,0,0,0-9.231-11.595c-9.954-2.172-19.026-5.074-19.93-8.514Z" transform="translate(-541.809 -1181.5)"/><line class="a" y1="6.733" x2="4.548" transform="translate(21.065 3.419)"/><line class="a" y1="6.185" x2="4.277" transform="translate(24.613 4.785)"/><line class="a" y1="5.64" x2="3.459" transform="translate(29.253 5.603)"/></g><path class="l" d="M265.7,625.748s76.048-4.757,94.529,16.986-17.392,99.286-21.017,146.394c0,0-18.2,1.812-25.586,0s-13.819-82.35,4.8-104.456c0,0-70.773,16.281-98.372-4.253S254.219,626.136,265.7,625.748Z" transform="translate(-213.019 -625.308)"/><path class="d" d="M570.633,1165.577a24.326,24.326,0,0,1-15.579,0l-1.474-6.72a147.821,147.821,0,0,0,18.524-.357Z" transform="translate(-448.786 -994.431)"/></g><g transform="translate(219.324 117.336)"><path class="j" d="M977.373,1004.563,937.847,1034.9q-.84-1.025-1.517-2L975.7,1002.68A11.031,11.031,0,0,1,977.373,1004.563Z" transform="translate(-927.991 -997.779)"/><path class="k" d="M909.23,1002.918c3.452,4.2,1.378,10.133,8.219,19.044l39.526-30.337a11.172,11.172,0,0,0-14.392-3.573c-9.228,4.342-18.18,7.56-20.995,5.379Z" transform="translate(-909.23 -986.751)"/><line class="a" x1="0.489" y1="7.844" transform="translate(18.432 6.197)"/><line class="a" x1="0.489" y1="7.025" transform="translate(21.435 5.105)"/><line class="a" x1="0.489" y1="6.207" transform="translate(24.438 4.012)"/></g><path class="j" d="M193.889,668.844c1.134,6.136,65.59,21,134.178-22.463,0,0,4.509,52.434,73.81,90.467,0,0,15.08-5.465,21.856-17.475,0,0-45.208-53.077-62.614-101.818-7.307-20.466-99.271-9.751-112.717-5.567S188.835,641.5,193.889,668.844Z" transform="translate(-193.503 -605.432)"/><path class="d" d="M907.839,994.324s-2.982,9.182-12.358,9.487l-6.111-4.333a47.191,47.191,0,0,0,14.462-11.437Z" transform="translate(-676.157 -870.307)"/></g><g transform="translate(80.621)"><g transform="translate(0 35.417)"><path class="d" d="M339.54,117.6s-2.877,7.564-21.54,14.77c0,0,13.133,17.976,26.491,34.867,0,0,5.354-15.518,15.032-21.946Z" transform="translate(-318 -117.6)"/><path class="e" d="M402.177,147.9a29.5,29.5,0,0,0-7.244,7.385c-6.154-4.616-13.075-12.718-15.124-18.595-1.012-2.908,1.668-10.77,3.222-15.312Z" transform="translate(-360.636 -120.217)"/></g><path class="d" d="M384.912,75.188c0,2.462-2.139,10.041.449,13.081,4.733,5.56,18.29,14.462,24.958,14.09,4.751-.255,11.481-20.866,12.484-23.946s5.336-15.432,2.259-18.733-28.8-10.527-33.91.114C385.488,71.588,384.912,75.188,384.912,75.188Z" transform="translate(-363.748 -38.294)"/><g transform="translate(20.853 4.086)"><path class="k" d="M436.812,25.916c-2.526,16.527-13.29,18.687-34.494,6.274-9.714-5.683-2.846,4.5-8.308,13.333l-1.785.665c.059-.889.185-4.563-1.643-4.573-2.692,0-3.52,4.074-3.779,6.588l-1.034.385s-.111-18.423,2.5-24.278c6.462-14.5,25.14-6.665,29.722-4.2C432.448,27.879,436.812,25.916,436.812,25.916Z" transform="translate(-385.768 -15.78)"/><path class="m" d="M438,65c15.078,11.9,26.925,14.724,32.808,7.727" transform="translate(-421.928 -49.855)"/></g><g transform="translate(13.23)"><rect class="b" width="13.619" height="16.647" rx="6.81" transform="translate(4.555 22.777) rotate(15.88)"/><path class="b" d="M389.18,89.4l-1.348,4.739a5.865,5.865,0,0,1-7.243,4.034l-1.822-.52c-.08-.022-.157-.046-.237-.074a5.846,5.846,0,0,0,7-4.1l1.348-4.739a5.847,5.847,0,0,0-3.8-7.167l.24.062,1.812.511a5.846,5.846,0,0,1,4.043,7.25Z" transform="translate(-373.134 -57.247)"/><path class="a" d="M394.11,26.887,399.649,7.44a6.794,6.794,0,0,1,8.394-4.677l19.694,5.6a3.8,3.8,0,0,1,2.849,5.056" transform="translate(-383.92 -2.502)"/></g></g></g><g transform="translate(52.615 114.718)"><path class="n" d="M487.2,438.413H400.856c-3.942,0-6.44-3.942-4.539-7.16l29.233-49.44a14.629,14.629,0,0,1,12.665-6.973h86.344c3.942,0,6.44,3.942,4.539,7.16l-29.233,49.44A14.674,14.674,0,0,1,487.2,438.413Z" transform="translate(-327.689 -374.84)"/><path class="g" d="M492.664,446.474h-82.8c-3.862,0-6.308-3.862-4.443-7.016l28.639-48.437a14.36,14.36,0,0,1,12.41-6.831h82.8c3.862,0,6.308,3.862,4.443,7.016L505.074,439.64A14.363,14.363,0,0,1,492.664,446.474Z" transform="translate(-334.002 -381.313)"/><path class="o" d="M487.2,438.413H400.856c-3.942,0-6.44-3.942-4.539-7.16l29.233-49.44a14.629,14.629,0,0,1,12.665-6.973h86.344c3.942,0,6.44,3.942,4.539,7.16l-29.233,49.44A14.674,14.674,0,0,1,487.2,438.413Z" transform="translate(-327.689 -374.84)"/><rect class="p" width="163.681" height="6.683" rx="3.342" transform="translate(0 63.638)"/></g></g></g></svg>